<mxfile host="app.diagrams.net" modified="2022-11-23T09:41:13.992Z" agent="5.0 (Windows NT 10.0; Win64; x64) AppleWebKit/537.36 (KHTML, like Gecko) Chrome/107.0.0.0 Safari/537.36" etag="F8sotIGGQDj6JGDEwGYz" version="20.4.1" type="github">
  <diagram id="C5RBs43oDa-KdzZeNtuy" name="Page-1">
    <mxGraphModel dx="1662" dy="762" grid="1" gridSize="10" guides="1" tooltips="1" connect="1" arrows="1" fold="1" page="1" pageScale="1" pageWidth="827" pageHeight="1169" math="0" shadow="0">
      <root>
        <mxCell id="WIyWlLk6GJQsqaUBKTNV-0" />
        <mxCell id="WIyWlLk6GJQsqaUBKTNV-1" parent="WIyWlLk6GJQsqaUBKTNV-0" />
        <mxCell id="WIyWlLk6GJQsqaUBKTNV-3" value="카카오 직원이&amp;nbsp;&lt;br&gt;승인 버튼 클릭" style="rounded=1;whiteSpace=wrap;html=1;fontSize=12;glass=0;strokeWidth=1;shadow=0;" parent="WIyWlLk6GJQsqaUBKTNV-1" vertex="1">
          <mxGeometry x="160" y="80" width="120" height="40" as="geometry" />
        </mxCell>
        <mxCell id="8r-Owe_XGoAO7W85Ogez-0" value="승인된 최신 그룹 아이디 조회&lt;br&gt;&lt;br&gt;select APPROVE_AD_GRP_ID&lt;br&gt;from dreamsearch.BIZ_JOB_NOTI&amp;nbsp;&lt;br&gt;where AD_GRP_ID = #{GRP_ID}" style="rounded=1;whiteSpace=wrap;html=1;fontSize=12;glass=0;strokeWidth=1;shadow=0;" vertex="1" parent="WIyWlLk6GJQsqaUBKTNV-1">
          <mxGeometry x="125" y="148" width="190" height="100" as="geometry" />
        </mxCell>
        <mxCell id="8r-Owe_XGoAO7W85Ogez-1" value="" style="rounded=0;html=1;jettySize=auto;orthogonalLoop=1;fontSize=11;endArrow=block;endFill=0;endSize=8;strokeWidth=1;shadow=0;labelBackgroundColor=none;edgeStyle=orthogonalEdgeStyle;exitX=0.5;exitY=1;exitDx=0;exitDy=0;" edge="1" parent="WIyWlLk6GJQsqaUBKTNV-1" source="WIyWlLk6GJQsqaUBKTNV-3" target="8r-Owe_XGoAO7W85Ogez-0">
          <mxGeometry x="0.3333" y="20" relative="1" as="geometry">
            <mxPoint as="offset" />
            <mxPoint x="230" y="380" as="sourcePoint" />
            <mxPoint x="230" y="440" as="targetPoint" />
          </mxGeometry>
        </mxCell>
        <mxCell id="8r-Owe_XGoAO7W85Ogez-3" value="APPROVE_AD_GRP_ID &amp;gt; 0" style="rhombus;whiteSpace=wrap;html=1;shadow=0;fontFamily=Helvetica;fontSize=12;align=center;strokeWidth=1;spacing=6;spacingTop=-4;" vertex="1" parent="WIyWlLk6GJQsqaUBKTNV-1">
          <mxGeometry x="130" y="280" width="200" height="94" as="geometry" />
        </mxCell>
        <mxCell id="8r-Owe_XGoAO7W85Ogez-4" value="" style="rounded=0;html=1;jettySize=auto;orthogonalLoop=1;fontSize=11;endArrow=block;endFill=0;endSize=8;strokeWidth=1;shadow=0;labelBackgroundColor=none;edgeStyle=orthogonalEdgeStyle;exitX=0.5;exitY=1;exitDx=0;exitDy=0;entryX=0.5;entryY=0;entryDx=0;entryDy=0;" edge="1" parent="WIyWlLk6GJQsqaUBKTNV-1" source="8r-Owe_XGoAO7W85Ogez-0" target="8r-Owe_XGoAO7W85Ogez-3">
          <mxGeometry x="0.3333" y="20" relative="1" as="geometry">
            <mxPoint as="offset" />
            <mxPoint x="230" y="130" as="sourcePoint" />
            <mxPoint x="230" y="154" as="targetPoint" />
          </mxGeometry>
        </mxCell>
        <mxCell id="8r-Owe_XGoAO7W85Ogez-5" value="해당 그룹 아이디로 이벤트 소재 그룹 맵핑 테이블 조회&lt;br&gt;&lt;br&gt;select *&lt;br&gt;from dreamsearch.MOBON_AD_GRP_EVENT_MPG&lt;br&gt;where MOBON_AD_GRP_ID = #{APPROVE_AD_GRP_ID}" style="rounded=1;whiteSpace=wrap;html=1;fontSize=12;glass=0;strokeWidth=1;shadow=0;" vertex="1" parent="WIyWlLk6GJQsqaUBKTNV-1">
          <mxGeometry x="36.25" y="410" width="387.5" height="120" as="geometry" />
        </mxCell>
        <mxCell id="8r-Owe_XGoAO7W85Ogez-6" value="Yes" style="edgeStyle=orthogonalEdgeStyle;rounded=0;html=1;jettySize=auto;orthogonalLoop=1;fontSize=11;endArrow=block;endFill=0;endSize=8;strokeWidth=1;shadow=0;labelBackgroundColor=none;exitX=0.5;exitY=1;exitDx=0;exitDy=0;entryX=0.5;entryY=0;entryDx=0;entryDy=0;" edge="1" parent="WIyWlLk6GJQsqaUBKTNV-1" source="8r-Owe_XGoAO7W85Ogez-3" target="8r-Owe_XGoAO7W85Ogez-5">
          <mxGeometry y="10" relative="1" as="geometry">
            <mxPoint as="offset" />
            <mxPoint x="580" y="330.0000000000001" as="sourcePoint" />
            <mxPoint x="630" y="330.0000000000001" as="targetPoint" />
          </mxGeometry>
        </mxCell>
        <mxCell id="8r-Owe_XGoAO7W85Ogez-7" value="맵핑 데이터 존재" style="rhombus;whiteSpace=wrap;html=1;shadow=0;fontFamily=Helvetica;fontSize=12;align=center;strokeWidth=1;spacing=6;spacingTop=-4;" vertex="1" parent="WIyWlLk6GJQsqaUBKTNV-1">
          <mxGeometry x="135" y="564" width="200" height="94" as="geometry" />
        </mxCell>
        <mxCell id="8r-Owe_XGoAO7W85Ogez-8" value="Yes" style="edgeStyle=orthogonalEdgeStyle;rounded=0;html=1;jettySize=auto;orthogonalLoop=1;fontSize=11;endArrow=block;endFill=0;endSize=8;strokeWidth=1;shadow=0;labelBackgroundColor=none;exitX=0.5;exitY=1;exitDx=0;exitDy=0;entryX=0.5;entryY=0;entryDx=0;entryDy=0;" edge="1" parent="WIyWlLk6GJQsqaUBKTNV-1" source="8r-Owe_XGoAO7W85Ogez-5" target="8r-Owe_XGoAO7W85Ogez-7">
          <mxGeometry y="10" relative="1" as="geometry">
            <mxPoint as="offset" />
            <mxPoint x="240" y="384" as="sourcePoint" />
            <mxPoint x="240" y="420.0000000000001" as="targetPoint" />
          </mxGeometry>
        </mxCell>
        <mxCell id="8r-Owe_XGoAO7W85Ogez-9" value="승인된 최신 그룹 아이디로 업데이트&lt;br&gt;&lt;br&gt;update dreamsearch.MOBON_AD_GRP_EVENT_MPG&lt;br&gt;SET MOBON_AD_GRP_ID = #{AD_GRP_ID}&lt;br&gt;WHERE MOBON_AD_GRP_ID = #{APPROVE_AD_GRP_ID}" style="rounded=1;whiteSpace=wrap;html=1;fontSize=12;glass=0;strokeWidth=1;shadow=0;" vertex="1" parent="WIyWlLk6GJQsqaUBKTNV-1">
          <mxGeometry x="41" y="694" width="390" height="92" as="geometry" />
        </mxCell>
        <mxCell id="8r-Owe_XGoAO7W85Ogez-10" value="Yes" style="edgeStyle=orthogonalEdgeStyle;rounded=0;html=1;jettySize=auto;orthogonalLoop=1;fontSize=11;endArrow=block;endFill=0;endSize=8;strokeWidth=1;shadow=0;labelBackgroundColor=none;entryX=0.5;entryY=0;entryDx=0;entryDy=0;" edge="1" parent="WIyWlLk6GJQsqaUBKTNV-1" target="8r-Owe_XGoAO7W85Ogez-9">
          <mxGeometry y="10" relative="1" as="geometry">
            <mxPoint as="offset" />
            <mxPoint x="235" y="660" as="sourcePoint" />
            <mxPoint x="245" y="568" as="targetPoint" />
            <Array as="points">
              <mxPoint x="236" y="660" />
            </Array>
          </mxGeometry>
        </mxCell>
      </root>
    </mxGraphModel>
  </diagram>
</mxfile>
